<svg width="44" height="45" viewBox="0 0 44 45" fill="none" xmlns="http://www.w3.org/2000/svg">
<g clip-path="url(#clip0_59_10296)">
<path d="M21.982 4.21216C11.862 4.21216 3.66699 12.4255 3.66699 22.5455C3.66699 32.6655 11.862 40.8788 21.982 40.8788C32.1203 40.8788 40.3337 32.6655 40.3337 22.5455C40.3337 12.4255 32.1203 4.21216 21.982 4.21216ZM22.0003 37.2122C13.897 37.2122 7.33366 30.6488 7.33366 22.5455C7.33366 14.4422 13.897 7.87882 22.0003 7.87882C30.1037 7.87882 36.667 14.4422 36.667 22.5455C36.667 30.6488 30.1037 37.2122 22.0003 37.2122ZM28.417 20.7122C29.9387 20.7122 31.167 19.4838 31.167 17.9622C31.167 16.4405 29.9387 15.2122 28.417 15.2122C26.8953 15.2122 25.667 16.4405 25.667 17.9622C25.667 19.4838 26.8953 20.7122 28.417 20.7122ZM15.5837 20.7122C17.1053 20.7122 18.3337 19.4838 18.3337 17.9622C18.3337 16.4405 17.1053 15.2122 15.5837 15.2122C14.062 15.2122 12.8337 16.4405 12.8337 17.9622C12.8337 19.4838 14.062 20.7122 15.5837 20.7122ZM22.0003 32.6288C26.272 32.6288 29.902 29.9522 31.3687 26.2122H12.632C14.0987 29.9522 17.7287 32.6288 22.0003 32.6288Z" fill="#0D8E0B"/>
</g>
<defs>
<clipPath id="clip0_59_10296">
<rect width="44" height="44" fill="white" transform="translate(0 0.545471)"/>
</clipPath>
</defs>
</svg>
