<svg width="44" height="45" viewBox="0 0 44 45" fill="none" xmlns="http://www.w3.org/2000/svg">
<g clip-path="url(#clip0_59_10495)">
<path d="M21.982 4.39392C11.862 4.39392 3.66699 12.6073 3.66699 22.7273C3.66699 32.8473 11.862 41.0606 21.982 41.0606C32.1203 41.0606 40.3337 32.8473 40.3337 22.7273C40.3337 12.6073 32.1203 4.39392 21.982 4.39392ZM22.0003 37.3939C13.897 37.3939 7.33366 30.8306 7.33366 22.7273C7.33366 14.6239 13.897 8.06059 22.0003 8.06059C30.1037 8.06059 36.667 14.6239 36.667 22.7273C36.667 30.8306 30.1037 37.3939 22.0003 37.3939ZM28.417 20.8939C29.9387 20.8939 31.167 19.6656 31.167 18.1439C31.167 16.6223 29.9387 15.3939 28.417 15.3939C26.8953 15.3939 25.667 16.6223 25.667 18.1439C25.667 19.6656 26.8953 20.8939 28.417 20.8939ZM15.5837 20.8939C17.1053 20.8939 18.3337 19.6656 18.3337 18.1439C18.3337 16.6223 17.1053 15.3939 15.5837 15.3939C14.062 15.3939 12.8337 16.6223 12.8337 18.1439C12.8337 19.6656 14.062 20.8939 15.5837 20.8939ZM22.0003 25.4773C17.7287 25.4773 14.0987 28.1539 12.632 31.8939H31.3687C29.902 28.1539 26.272 25.4773 22.0003 25.4773Z" fill="#D30000"/>
</g>
<defs>
<clipPath id="clip0_59_10495">
<rect width="44" height="44" fill="white" transform="translate(0 0.727295)"/>
</clipPath>
</defs>
</svg>
