<svg width="37" height="37" viewBox="0 0 37 37" fill="none" xmlns="http://www.w3.org/2000/svg">
<path fill-rule="evenodd" clip-rule="evenodd" d="M29.989 19.97C30.0504 19.49 30.0964 19.01 30.0964 18.5C30.0964 17.99 30.0504 17.51 29.989 17.03L33.2259 14.555C33.5174 14.33 33.5941 13.925 33.41 13.595L30.3419 8.405C30.2038 8.165 29.943 8.03 29.6669 8.03C29.5748 8.03 29.4828 8.045 29.4061 8.075L25.5862 9.575C24.7884 8.975 23.9294 8.48 22.9936 8.105L22.4106 4.13C22.3646 3.77 22.0424 3.5 21.6589 3.5H15.5225C15.139 3.5 14.8169 3.77 14.7708 4.13L14.1879 8.105C13.2521 8.48 12.393 8.99 11.5953 9.575L7.77538 8.075C7.68333 8.045 7.59129 8.03 7.49924 8.03C7.23845 8.03 6.97765 8.165 6.83958 8.405L3.7714 13.595C3.57197 13.925 3.66401 14.33 3.95549 14.555L7.19242 17.03C7.13106 17.51 7.08504 18.005 7.08504 18.5C7.08504 18.995 7.13106 19.49 7.19242 19.97L3.95549 22.445C3.66401 22.67 3.58731 23.075 3.7714 23.405L6.83958 28.595C6.97765 28.835 7.23845 28.97 7.51458 28.97C7.60663 28.97 7.69867 28.955 7.77538 28.925L11.5953 27.425C12.393 28.025 13.2521 28.52 14.1879 28.895L14.7708 32.87C14.8169 33.23 15.139 33.5 15.5225 33.5H21.6589C22.0424 33.5 22.3646 33.23 22.4106 32.87L22.9936 28.895C23.9294 28.52 24.7884 28.01 25.5862 27.425L29.4061 28.925C29.4981 28.955 29.5901 28.97 29.6822 28.97C29.943 28.97 30.2038 28.835 30.3419 28.595L33.41 23.405C33.5941 23.075 33.5174 22.67 33.2259 22.445L29.989 19.97ZM15.5225 18.5C15.5225 20.15 16.9032 21.5 18.5907 21.5C20.2782 21.5 21.6589 20.15 21.6589 18.5C21.6589 16.85 20.2782 15.5 18.5907 15.5C16.9032 15.5 15.5225 16.85 15.5225 18.5Z" fill="#4F5650"/>
</svg>
