<svg width="50" height="49" viewBox="0 0 50 49" fill="none" xmlns="http://www.w3.org/2000/svg">
<g clip-path="url(#clip0_59_10264)">
<path d="M31.1253 6.125H12.7503C11.0557 6.125 9.60616 7.14583 8.99366 8.61583L2.82783 23.0096C2.64408 23.4792 2.54199 23.9692 2.54199 24.5V28.5833C2.54199 30.8292 4.37949 32.6667 6.62533 32.6667H19.5082L17.5687 41.9971L17.5074 42.6504C17.5074 43.4875 17.8545 44.2633 18.4057 44.8146L20.5699 46.9583L34.0041 33.5037C34.7595 32.7687 35.2087 31.7479 35.2087 30.625V10.2083C35.2087 7.9625 33.3712 6.125 31.1253 6.125ZM31.1253 30.625L22.2645 39.4858L24.5307 28.5833H6.62533V24.5L12.7503 10.2083H31.1253V30.625ZM39.292 6.125H47.4587V30.625H39.292V6.125Z" fill="#D30000"/>
</g>
<defs>
<clipPath id="clip0_59_10264">
<rect width="49" height="49" fill="white" transform="translate(0.5)"/>
</clipPath>
</defs>
</svg>
