<svg width="50" height="49" viewBox="0 0 50 49" fill="none" xmlns="http://www.w3.org/2000/svg">
<g clip-path="url(#clip0_59_10256)">
<path d="M18.8753 42.875H37.2503C38.9449 42.875 40.3945 41.8541 41.007 40.3841L47.1728 25.9904C47.3566 25.5208 47.4587 25.0308 47.4587 24.5V20.4166C47.4587 18.1708 45.6212 16.3333 43.3753 16.3333H30.4924L32.432 7.00288L32.4932 6.34954C32.4932 5.51246 32.1462 4.73663 31.5949 4.18538L29.4307 2.04163L15.9762 15.4962C15.2412 16.2312 14.792 17.252 14.792 18.375V38.7916C14.792 41.0375 16.6295 42.875 18.8753 42.875ZM18.8753 18.375L27.7362 9.51412L25.0003 20.4166H43.3753V24.5L37.2503 38.7916H18.8753V18.375ZM2.54199 18.375H10.7087V42.875H2.54199V18.375Z" fill="#0D8E0B"/>
</g>
<defs>
<clipPath id="clip0_59_10256">
<rect width="49" height="49" fill="white" transform="translate(0.5)"/>
</clipPath>
</defs>
</svg>
