<svg width="48" height="49" viewBox="0 0 48 49" fill="none" xmlns="http://www.w3.org/2000/svg">
<g clip-path="url(#clip0_59_5124)">
<path d="M39.1705 0.809C38.7008 0.358901 37.9376 0.407825 37.5267 0.906847L34.5325 4.53699C34.1509 4.99688 34.1998 5.66224 34.6304 6.0732C35.1 6.5233 35.8632 6.47437 36.2742 5.97535L39.2683 2.34521C39.6499 1.88532 39.601 1.21017 39.1705 0.809Z" fill="black"/>
<path d="M36.8214 8.90105C37.1247 9.44899 37.8097 9.64469 38.3478 9.35115L42.3987 7.13001C42.9467 6.82668 43.1424 6.14175 42.8488 5.60358L42.839 5.57423C42.5357 5.02628 41.8508 4.83059 41.3126 5.13392L37.2617 7.35506C36.7138 7.65838 36.5181 8.34332 36.8214 8.88148V8.90105Z" fill="black"/>
<path d="M26.3815 1.23959C25.7455 1.50378 25.4813 2.22785 25.7651 2.82472C24.1995 7.7171 20.178 11.4842 17.5948 13.5097L17.0566 12.541L10.5791 16.1026C9.28754 16.8071 8.81787 18.4216 9.53216 19.7132L10.0997 20.7504L9.39517 21.1418C8.96464 21.3766 8.80809 21.9246 9.04292 22.3551L10.6476 25.2709C10.8825 25.7015 11.4304 25.858 11.8609 25.6232L12.5654 25.2318L13.0547 26.132C13.7592 27.4236 15.3737 27.8933 16.6652 27.179L17.2621 26.8561L19.5126 29.3121C17.1643 30.2123 16.0194 33.6858 16.0194 33.6858C15.8433 34.3414 15.8531 34.9579 15.902 35.4275C15.9118 35.5449 15.9314 35.6526 15.951 35.7504C15.9607 35.8972 15.9216 36.132 15.8433 36.406C15.6574 37.0812 15.178 37.6389 14.5615 37.9716L4.01356 43.6859C3.43625 43.999 3.07422 44.6056 3.07422 45.2612V47.4236C3.07422 48.0205 3.55367 48.5 4.15054 48.5H13.8277C14.6104 48.5 15.3737 48.3043 16.0586 47.9227L23.0938 44.0577C24.268 43.5489 26.2152 42.6682 28.0645 41.5919C29.2974 41.0342 30.5596 40.359 31.4402 39.5958C34.4344 37.0127 32.2915 35.1144 32.2915 35.1144C33.3678 32.7367 31.3815 31.5919 31.3815 31.5919C32.0762 29.0087 29.6985 28.4608 29.6985 28.4608C29.6985 28.4608 29.8257 26.6115 28.1232 26.2005C26.6848 25.8482 24.6887 27.0909 23.5439 27.9324L20.7455 24.9285L23.1525 23.6075L22.6144 22.6389C25.6966 21.543 31.0391 20.1731 36.0097 21.4745C36.362 22.0322 37.1154 22.1985 37.6829 21.8071C38.1721 21.4549 38.2896 20.77 37.996 20.2416L34.6985 14.2435C35.7455 13.0302 35.9804 11.2592 35.1682 9.77189C34.3561 8.28461 32.722 7.54097 31.1369 7.76602L27.8688 1.81689C27.585 1.28851 26.949 1.01454 26.3815 1.23959ZM15.4617 24.6252L12.086 18.4803L15.9607 16.3473L19.3365 22.4921L15.4617 24.6252Z" fill="black"/>
<path d="M39.2681 13.1574L43.9355 12.5703C44.5813 12.4921 45.0314 11.8756 44.9042 11.2396C44.7867 10.6623 44.2486 10.2611 43.6615 10.3394L38.9942 10.9265C38.3484 11.0048 37.8983 11.6212 38.0255 12.2572C38.1331 12.8345 38.681 13.2357 39.2681 13.1574Z" fill="black"/>
</g>
<defs>
<clipPath id="clip0_59_5124">
<rect width="48" height="48" fill="white" transform="translate(0 0.5)"/>
</clipPath>
</defs>
</svg>
